<?xml version="1.0" encoding="UTF-8"?>
<svg id="Layer_1" data-name="Layer 1" xmlns="http://www.w3.org/2000/svg" viewBox="0 0 16.42 27.82">
  <defs>
    <style>
      .cls-1 {
        fill: #1e1915;
        fill-rule: evenodd;
      }
    </style>
  </defs>
  <path class="cls-1" d="M14.41.03c.49-.1,1,.04,1.37.38.4.33.64.82.65,1.34-.03.53-.29,1.02-.71,1.34l-2.53,2.03c-.17.12-.27.3-.3.5-.03.17.01.35.13.49,1.86,2.1,2.24,5.13.96,7.63-1.62,3.23-5.22,4.62-8.69,3.39-.19-.07-.39-.07-.58-.01-.26.08-.35.21-.52.44l-.02.02-1.09,1.45s-.92,1.14.53,1.08c3.51-.14,4.42-.14,6.3-.01,3.06.21,4.41,2.21,4.41,3.8,0,1.88-1.2,3.92-4.41,3.92-2.42-.06-3.89-.07-6.4-.03-.36,0-.69.02-.97.02h0c-.26,0-.47.01-.6.01-.82,0-1.91-.22-1.92-1.24,0-.84.72-1.3,1.29-1.36.5-.05.94,0,1.44.07h0c.29.04.6.08.95.1.21.01.42.03.64.04h0c.62.04,1.28.09,2.23.1.5,0,.88.01,1.19.02.81.01,1.09.02,1.48-.02,1.45-.13,2.12-.71,2.12-1.6,0-.93-.68-1.46-1.97-1.64-1.81-.25-2.7-.19-4.31-.09-.54.03-1.17.07-1.93.11-.7.03-2.84.03-3.11-1.73-.06-.48-.08-1.29.94-2.69l.87-1.16c.42-.57.67-1.04.06-1.81,0,0-.45-.54-.6-.74C-.12,12.36-.46,9.47.77,7.11c1.83-3.49,6.26-4.94,9.7-2.99.29.17.51.24.76.19.23-.04.31-.19.42-.4.02-.05.05-.1.08-.15,0-.01.28-.54.62-1.19h0s0,0,0,0c.28-.53.6-1.15.85-1.63.24-.47.69-.81,1.21-.91ZM4.96,15.35c2.15,1.05,4.53.24,6.09-2.86,1.57-3.13.96-5.92-1.21-6.98-2.88-1.41-5.33,1.25-6.25,3.08-1.57,3.13-.83,5.66,1.33,6.74l.03.02Z"/>
</svg>