<?xml version="1.0" encoding="UTF-8"?>
<svg id="Layer_1" data-name="Layer 1" xmlns="http://www.w3.org/2000/svg" viewBox="0 0 653.75 653.78">
  <defs>
    <style>
      .cls-1 {
        fill: none;
        stroke: #000;
        stroke-miterlimit: 10;
        stroke-width: 35px;
      }
    </style>
  </defs>
  <path d="M644.2,127.25l-117.68-117.68c-12.77-12.76-33.46-12.76-46.22,0L68.4,421.46c-3.59,3.58-6.29,7.96-7.88,12.78L1.68,610.76c-5.71,17.13,3.56,35.64,20.68,41.34,3.32,1.11,6.8,1.67,10.31,1.68,3.51,0,7-.57,10.33-1.67l176.52-58.84c4.81-1.6,9.18-4.31,12.75-7.91l411.89-411.89c12.77-12.76,12.79-33.45.03-46.22ZM180.32,545.15l-116.54,38.85,38.85-116.54L519.4,50.67l77.7,77.7-416.77,416.77Z"/>
  <line class="cls-1" x1="567.64" y1="214.22" x2="444.54" y2="91.12"/>
</svg>